<svg width="40" height="38" viewBox="0 0 40 38" xmlns="http://www.w3.org/2000/svg"><title>header_basket</title><path d="M9.604 26.458a.502.502 0 0 1 .473-.538l24.93-1.846c.547-.041 1.102-.511 1.237-1.05l3.512-14.047c.137-.549-.2-.977-.747-.977l-5.314.046L29.768.444A.89.89 0 0 0 29.043 0h-6.551a1.37 1.37 0 0 0-.844.35l-3.293 3.295a1.353 1.353 0 0 1-.846.355h-4.518c-.54 0-1.19.397-1.435.888L10 8l-1.207.032a.528.528 0 0 1-.54-.49l-.182-2.545A1.093 1.093 0 0 0 7.003 4H.997a1 1 0 0 0-.006 2h4.018c.547 0 1.026.451 1.067.987C6.076 6.987 8 32.657 8 33a5 5 0 0 0 9.9 1h4.2a5.002 5.002 0 0 0 9.9-1 5 5 0 0 0-9.9-1h-4.2a5.002 5.002 0 0 0-8.103-2.84l-.193-2.702zM13.498 6a.88.88 0 0 0-.72.444L12 8h19.5l-2.773-5.547C28.6 2.203 28.272 2 28.009 2h-5.018c-.271 0-.643.152-.846.355l-2.288 2.288a.738.738 0 0 0-.136.8L21 8h-2l-.778-1.556a.869.869 0 0 0-.72-.444h-4.004zm-4.573 4c-.274 0-.48.22-.46.497L9.39 23.47c.02.275.263.48.526.46l24.085-1.89a.73.73 0 0 0 .62-.524l2.757-11.03c.067-.268-.094-.485-.377-.485H8.925zM13 36a3 3 0 1 0 0-6 3 3 0 0 0 0 6zm14 0a3 3 0 1 0 0-6 3 3 0 0 0 0 6z" fill="#F6A623" fill-rule="evenodd"/></svg>