<svg width="38" height="38" viewBox="0 0 38 38" xmlns="http://www.w3.org/2000/svg"><title>header_callback</title><path d="M19 2C9.611 2 2 9.611 2 19s7.611 17 17 17c8.754 0 15.962-6.616 16.897-15.12.033-.301 0 0 0 0 .042-.502.52-.91 1.077-.91.553 0 .972.44.926.992 0 0 .033-.318-.002.016C36.91 30.542 28.826 38 19 38 8.507 38 0 29.493 0 19S8.507 0 19 0c5.77 0 10.938 2.572 14.423 6.631V4.997c0-.547.444-.99 1-.99a1 1 0 0 1 1 .99v4.019a.99.99 0 0 1-.288.698 1.005 1.005 0 0 1-.703.293h-4.018a.993.993 0 0 1-.991-1 1 1 0 0 1 .99-1h1.555A16.963 16.963 0 0 0 19 2zm7.728 23.251c-.004 0-.004.004 0 0-.159.171-.322.326-.497.497-.265.253-.534.518-.787.816-.412.44-.897.648-1.533.648-.06 0-.126 0-.187-.004-1.21-.078-2.336-.55-3.18-.954a18.108 18.108 0 0 1-6.017-4.712c-1.39-1.676-2.32-3.225-2.935-4.888-.379-1.015-.517-1.806-.456-2.552.04-.477.224-.872.562-1.21l1.39-1.39c.2-.188.412-.29.62-.29.257 0 .465.155.595.285l.012.012c.25.233.485.473.734.73.127.13.257.261.387.396l1.113 1.112c.432.433.432.832 0 1.264-.118.118-.232.237-.35.35-.343.351-.669.677-1.023.995-.009.009-.017.013-.02.02-.351.351-.286.694-.213.926l.012.037c.29.7.697 1.361 1.317 2.148l.004.004c1.125 1.386 2.311 2.466 3.62 3.294.167.106.338.192.501.273.147.073.286.143.404.216.016.008.033.02.049.029a.888.888 0 0 0 .403.102c.339 0 .55-.212.62-.282l1.394-1.394c.139-.138.359-.306.616-.306.253 0 .46.16.587.298l.008.008 2.246 2.246c.42.416.42.844.004 1.276z" fill="#F6A623" fill-rule="evenodd"/></svg>