<svg width="28" height="38" viewBox="0 0 28 38" xmlns="http://www.w3.org/2000/svg"><title>header_phone</title><path d="M0 5.007A5.008 5.008 0 0 1 5.006 0h17.988A5.002 5.002 0 0 1 28 5.007v27.986A5.008 5.008 0 0 1 22.994 38H5.006A5.002 5.002 0 0 1 0 32.993V5.007zm2-.005A2.998 2.998 0 0 1 4.991 2H23.01A2.996 2.996 0 0 1 26 5.002v27.996A2.998 2.998 0 0 1 23.009 36H4.99A2.996 2.996 0 0 1 2 32.998V5.002zM2 6h24v2H2V6zm0 20h24v2H2v-2zm12 8a2 2 0 1 0 0-4 2 2 0 0 0 0 4z" fill="#F6A623" fill-rule="evenodd"/></svg>