<svg width="14" height="14" viewBox="0 0 14 14" xmlns="http://www.w3.org/2000/svg"><title>icon_lock</title><path d="M12.09 6.364h-1.272V3.818a3.818 3.818 0 1 0-7.636 0v2.546H1.909A1.908 1.908 0 0 0 0 8.273v3.818C0 13.146.854 14 1.91 14h10.18c1.056 0 1.91-.854 1.91-1.91V8.274a1.91 1.91 0 0 0-1.91-1.91zM4.456 3.818a2.546 2.546 0 0 1 5.09 0v2.546h-5.09V3.818zm8.272 8.273a.636.636 0 0 1-.636.636H1.909a.636.636 0 0 1-.636-.636V8.273c0-.352.285-.637.636-.637h10.182c.352 0 .636.285.636.637v3.818z" fill="#F6A623" fill-rule="evenodd"/></svg>