<svg width="15" height="14" viewBox="0 0 15 14" xmlns="http://www.w3.org/2000/svg"><title>icon_user</title><path d="M9.841 8.104a3.64 3.64 0 0 0 1.116-2.626V3.652a3.652 3.652 0 1 0-7.305 0v1.826c0 1.03.428 1.962 1.115 2.626C1.984 8.537 0 9.66 0 10.97v1.203C0 13.183.817 14 1.826 14h10.957a1.826 1.826 0 0 0 1.826-1.826v-1.198c0-1.31-1.984-2.437-4.768-2.872zM4.87 5.478V3.652a2.435 2.435 0 0 1 4.87 0v1.826a2.435 2.435 0 0 1-4.87 0zm8.521 6.696a.61.61 0 0 1-.608.609H1.826a.61.61 0 0 1-.609-.61v-1.202c0-.142.351-.6 1.393-1.037 1.218-.51 2.93-.804 4.694-.804 1.765 0 3.475.294 4.694.806 1.042.438 1.393.897 1.393 1.04v1.198z" fill="#F6A623" fill-rule="evenodd"/></svg>