<?xml version="1.0" encoding="UTF-8"?>
<svg width="40px" height="38px" viewBox="0 0 40 38" version="1.1" xmlns="http://www.w3.org/2000/svg" xmlns:xlink="http://www.w3.org/1999/xlink">
    <!-- Generator: Sketch 40.2 (33826) - http://www.bohemiancoding.com/sketch -->
    <title>header_basket</title>
    <desc>Created with Sketch.</desc>
    <defs></defs>
    <g id="Source" stroke="none" stroke-width="1" fill="none" fill-rule="evenodd">
        <g id="home" transform="translate(-1053.000000, -116.000000)" fill="#F6A623">
            <g id="header">
                <g id="basket" transform="translate(1040.000000, 103.000000)">
                    <path d="M22.6041625,39.4582748 C22.584423,39.1819225 22.7883393,38.9416045 23.076567,38.9202543 L48.0070346,37.073553 C48.5538914,37.0330451 49.1093305,36.5626778 49.2441966,36.0232136 L52.7558034,21.9767864 C52.8930097,21.4279613 52.5564136,21 52.009222,21 L46.6950073,21.0458829 L42.7676166,13.4440423 C42.6409177,13.1988045 42.320648,13 42.0434103,13 L35.4918279,13 C35.2185586,13 34.8405355,13.1566222 34.6478144,13.3495005 L31.3549733,16.6450267 C31.1519203,16.8480797 30.7801695,17 30.5089948,17 L25.990778,17 C25.4509752,17 24.8012749,17.3974501 24.5561352,17.8877296 L23,21 L21.7930963,21.0323648 C21.514687,21.0398307 21.2733272,20.8265814 21.2530247,20.5423452 L21.0711811,17.9965348 C21.0318688,17.4461638 20.5469637,17 20.0029699,17 L13.9970301,17 C13.4463856,17 13,17.4438648 13,18 C13,18.5522847 13.4509752,19 13.990778,19 L18.009222,19 C18.5564136,19 19.0347137,19.4512787 19.0759602,19.9874821 C19.0759602,19.9874821 21,45.6575342 21,46 C21,48.7614237 23.2385763,51 26,51 C28.4189579,51 30.4367116,49.2822403 30.8999819,47 L35.1000181,47 C35.5632884,49.2822403 37.5810421,51 40,51 C42.7614237,51 45,48.7614237 45,46 C45,43.2385763 42.7614237,41 40,41 C37.5810421,41 35.5632884,42.7177597 35.1000181,45 L30.8999819,45 C30.4367116,42.7177597 28.4189579,41 26,41 C24.7814288,41 23.6646723,41.4359208 22.7971662,42.1603269 L22.6041625,39.4582748 Z M26.4976988,19 C26.2228273,19 25.9004602,19.1990795 25.7780676,19.4438648 L25,21 L44.5,21 L41.7265182,15.4530363 C41.6014156,15.2028313 41.2721195,15 41.0089948,15 L35.9910052,15 C35.7198305,15 35.3480797,15.1519203 35.1450267,15.3549733 L32.8567201,17.6432799 C32.659709,17.840291 32.5984192,18.1968384 32.7213302,18.4426603 L34,21 L32,21 L31.2219324,19.4438648 C31.0993625,19.1987251 30.7851563,19 30.5023012,19 L26.4976988,19 Z M21.924522,23 C21.6506161,23 21.4442415,23.2193815 21.464077,23.4970778 L22.3906783,36.4694961 C22.4102875,36.7440245 22.6537824,36.9487229 22.9170963,36.9280709 L47.0020617,35.039054 C47.2770654,35.0174851 47.5520706,34.7917175 47.6213192,34.5147233 L50.3786808,23.4852767 C50.4456836,23.2172658 50.2851563,23 50.0023012,23 L21.924522,23 Z M26,49 C27.6568542,49 29,47.6568542 29,46 C29,44.3431458 27.6568542,43 26,43 C24.3431458,43 23,44.3431458 23,46 C23,47.6568542 24.3431458,49 26,49 L26,49 Z M40,49 C41.6568542,49 43,47.6568542 43,46 C43,44.3431458 41.6568542,43 40,43 C38.3431458,43 37,44.3431458 37,46 C37,47.6568542 38.3431458,49 40,49 L40,49 Z" id="header_basket"></path>
                </g>
            </g>
        </g>
    </g>
</svg>