<?xml version="1.0" encoding="UTF-8"?>
<svg width="12px" height="10px" viewBox="0 0 12 10" version="1.1" xmlns="http://www.w3.org/2000/svg" xmlns:xlink="http://www.w3.org/1999/xlink">
    <!-- Generator: Sketch 40.2 (33826) - http://www.bohemiancoding.com/sketch -->
    <title>arrow_left</title>
    <desc>Created with Sketch.</desc>
    <defs></defs>
    <g id="Source" stroke="none" stroke-width="1" fill="none" fill-rule="evenodd">
        <g id="catalog" transform="translate(-687.000000, -2145.000000)" fill="#BDBDBD">
            <g id="pagination" transform="translate(406.000000, 2132.000000)">
                <path d="M283.171259,17.4613846 L286.307852,14.2041538 C286.539259,13.9638462 286.539111,13.5743077 286.307852,13.3338462 C286.076444,13.0935385 285.701333,13.0935385 285.469778,13.3338462 L281.32163,17.6415385 C281.090222,17.8818462 281.090222,18.2715385 281.321481,18.5116923 L285.46963,22.8193846 C285.585333,22.9395385 285.737037,22.9996923 285.888741,22.9996923 C286.040296,22.9996923 286.192,22.9395385 286.307852,22.8192308 C286.539259,22.5790769 286.539111,22.1893846 286.307852,21.9492308 L283.171111,18.6921538 L292.407259,18.6921538 C292.734519,18.6921538 293,18.4164615 292.999852,18.0767692 C292.999852,17.7369231 292.734519,17.4613846 292.407259,17.4613846 L283.171259,17.4613846 Z" id="arrow_left" transform="translate(287.073954, 18.076654) scale(-1, 1) translate(-287.073954, -18.076654) "></path>
            </g>
        </g>
    </g>
</svg>