<?xml version="1.0" encoding="UTF-8"?>
<svg width="12px" height="10px" viewBox="0 0 12 10" version="1.1" xmlns="http://www.w3.org/2000/svg" xmlns:xlink="http://www.w3.org/1999/xlink">
    <!-- Generator: Sketch 40.2 (33826) - http://www.bohemiancoding.com/sketch -->
    <title>arrow_right</title>
    <desc>Created with Sketch.</desc>
    <defs></defs>
    <g id="Source" stroke="none" stroke-width="1" fill="none" fill-rule="evenodd">
        <g id="catalog" transform="translate(-417.000000, -2145.000000)" fill="#BDBDBD">
            <g id="pagination" transform="translate(406.000000, 2132.000000)">
                <path d="M22.4072593,17.4613846 L13.1712593,17.4613846 L16.3078519,14.2041538 C16.5392593,13.9638462 16.5391111,13.5743077 16.3078519,13.3338462 C16.0764444,13.0935385 15.7013333,13.0935385 15.4697778,13.3338462 L11.3216296,17.6415385 C11.0902222,17.8818462 11.0902222,18.2715385 11.3214815,18.5116923 L15.4696296,22.8193846 C15.5853333,22.9395385 15.737037,22.9996923 15.8887407,22.9996923 C16.0402963,22.9996923 16.192,22.9395385 16.3078519,22.8192308 C16.5392593,22.5790769 16.5391111,22.1893846 16.3078519,21.9492308 L13.1711111,18.6921538 L22.4072593,18.6921538 C22.7345185,18.6921538 23,18.4164615 22.9998519,18.0767692 C22.9998519,17.7369231 22.7345185,17.4613846 22.4072593,17.4613846 L22.4072593,17.4613846 Z" id="arrow_right"></path>
            </g>
        </g>
    </g>
</svg>