<?xml version="1.0" encoding="UTF-8"?>
<svg width="14px" height="14px" viewBox="0 0 14 14" version="1.1" xmlns="http://www.w3.org/2000/svg" xmlns:xlink="http://www.w3.org/1999/xlink">
    <!-- Generator: Sketch 40.2 (33826) - http://www.bohemiancoding.com/sketch -->
    <title>icon_lock</title>
    <desc>Created with Sketch.</desc>
    <defs></defs>
    <g id="Source" stroke="none" stroke-width="1" fill="none" fill-rule="evenodd">
        <g id="home" transform="translate(-1044.000000, -21.000000)" fill="#F6A623">
            <g id="header">
                <g id="top_line">
                    <g id="login/reg" transform="translate(1044.000000, 21.000000)">
                        <path d="M12.0909091,6.36363636 L10.8181818,6.36363636 L10.8181818,3.81818182 C10.8181818,1.70943182 9.10875,0 7,0 C4.89125,0 3.18181818,1.70943182 3.18181818,3.81818182 L3.18181818,6.36363636 L1.90909091,6.36363636 C0.854318182,6.36363636 0,7.21795455 0,8.27272727 L0,12.0909091 C0,13.1456818 0.854318182,14 1.90909091,14 L12.0909091,14 C13.1456818,14 14,13.1456818 14,12.0909091 L14,8.27272727 C14,7.21795455 13.1456818,6.36363636 12.0909091,6.36363636 L12.0909091,6.36363636 Z M4.45454545,3.81818182 C4.45454545,2.41245455 5.59427273,1.27272727 7,1.27272727 C8.40572727,1.27272727 9.54545455,2.41245455 9.54545455,3.81818182 L9.54545455,6.36363636 L4.45454545,6.36363636 L4.45454545,3.81818182 L4.45454545,3.81818182 Z M12.7272727,12.0909091 C12.7272727,12.4425 12.4425,12.7272727 12.0909091,12.7272727 L1.90909091,12.7272727 C1.5575,12.7272727 1.27272727,12.4425 1.27272727,12.0909091 L1.27272727,8.27272727 C1.27272727,7.92113636 1.5575,7.63636364 1.90909091,7.63636364 L12.0909091,7.63636364 C12.4425,7.63636364 12.7272727,7.92113636 12.7272727,8.27272727 L12.7272727,12.0909091 L12.7272727,12.0909091 Z" id="icon_lock"></path>
                    </g>
                </g>
            </g>
        </g>
    </g>
</svg>