<svg xmlns="http://www.w3.org/2000/svg" xmlns:xlink="http://www.w3.org/1999/xlink" width="40" height="220" viewBox="0 0 40 220"><svg width="40" height="38" viewBox="0 0 40 38"><title>header_basket</title><path d="M9.604 26.458a.502.502 0 0 1 .473-.538l24.93-1.846c.547-.041 1.102-.511 1.237-1.05l3.512-14.047c.137-.549-.2-.977-.747-.977l-5.314.046L29.768.444A.89.89 0 0 0 29.043 0h-6.551a1.37 1.37 0 0 0-.844.35l-3.293 3.295a1.353 1.353 0 0 1-.846.355h-4.518c-.54 0-1.19.397-1.435.888L10 8l-1.207.032a.528.528 0 0 1-.54-.49l-.182-2.545A1.093 1.093 0 0 0 7.003 4H.997a1 1 0 0 0-.006 2h4.018c.547 0 1.026.451 1.067.987C6.076 6.987 8 32.657 8 33a5 5 0 0 0 9.9 1h4.2a5.002 5.002 0 0 0 9.9-1 5 5 0 0 0-9.9-1h-4.2a5.002 5.002 0 0 0-8.103-2.84l-.193-2.702zM13.498 6a.88.88 0 0 0-.72.444L12 8h19.5l-2.773-5.547C28.6 2.203 28.272 2 28.009 2h-5.018c-.271 0-.643.152-.846.355l-2.288 2.288a.738.738 0 0 0-.136.8L21 8h-2l-.778-1.556a.869.869 0 0 0-.72-.444h-4.004zm-4.573 4c-.274 0-.48.22-.46.497L9.39 23.47c.02.275.263.48.526.46l24.085-1.89a.73.73 0 0 0 .62-.524l2.757-11.03c.067-.268-.094-.485-.377-.485H8.925zM13 36a3 3 0 1 0 0-6 3 3 0 0 0 0 6zm14 0a3 3 0 1 0 0-6 3 3 0 0 0 0 6z" fill="#F6A623" fill-rule="evenodd"/></svg><svg width="12" height="10" viewBox="0 0 12 10" y="38"><title>arrow_left</title><path d="M9.977 4.461L6.84 1.204a.632.632 0 0 1 0-.87.577.577 0 0 1 .838 0l4.148 4.308a.63.63 0 0 1 0 .87L7.678 9.819a.58.58 0 0 1-.838 0 .632.632 0 0 1 0-.87l3.137-3.257H.74a.604.604 0 0 1-.593-.615c0-.34.265-.616.593-.616h9.236z" fill="#BDBDBD" fill-rule="evenodd"/></svg><svg width="12" height="10" viewBox="0 0 12 10" y="48"><title>arrow_right</title><path d="M11.407 4.461H2.171l3.137-3.257a.632.632 0 0 0 0-.87.577.577 0 0 0-.838 0L.322 4.642a.632.632 0 0 0 0 .87L4.47 9.819a.58.58 0 0 0 .838 0 .632.632 0 0 0 0-.87L2.17 5.692h9.236A.604.604 0 0 0 12 5.077a.604.604 0 0 0-.593-.616z" fill="#BDBDBD" fill-rule="evenodd"/></svg><svg width="10" height="10" viewBox="0 0 10 10" y="58"><title>icon_remove</title><path d="M9.634 7.866a1.25 1.25 0 1 1-1.768 1.768L5 6.768 2.134 9.634a1.246 1.246 0 0 1-1.768 0 1.25 1.25 0 0 1 0-1.768L3.232 5 .366 2.134A1.25 1.25 0 1 1 2.134.366L5 3.232 7.866.366a1.25 1.25 0 1 1 1.768 1.768L6.768 5l2.866 2.866z" fill="#E6DEDA" fill-rule="evenodd"/></svg><svg width="38" height="38" viewBox="0 0 38 38" y="68"><title>header_callback</title><path d="M19 2C9.611 2 2 9.611 2 19s7.611 17 17 17c8.754 0 15.962-6.616 16.897-15.12.033-.301 0 0 0 0 .042-.502.52-.91 1.077-.91.553 0 .972.44.926.992 0 0 .033-.318-.002.016C36.91 30.542 28.826 38 19 38 8.507 38 0 29.493 0 19S8.507 0 19 0c5.77 0 10.938 2.572 14.423 6.631V4.997c0-.547.444-.99 1-.99a1 1 0 0 1 1 .99v4.019a.99.99 0 0 1-.288.698 1.005 1.005 0 0 1-.703.293h-4.018a.993.993 0 0 1-.991-1 1 1 0 0 1 .99-1h1.555A16.963 16.963 0 0 0 19 2zm7.728 23.251c-.004 0-.004.004 0 0-.159.171-.322.326-.497.497-.265.253-.534.518-.787.816-.412.44-.897.648-1.533.648-.06 0-.126 0-.187-.004-1.21-.078-2.336-.55-3.18-.954a18.108 18.108 0 0 1-6.017-4.712c-1.39-1.676-2.32-3.225-2.935-4.888-.379-1.015-.517-1.806-.456-2.552.04-.477.224-.872.562-1.21l1.39-1.39c.2-.188.412-.29.62-.29.257 0 .465.155.595.285l.012.012c.25.233.485.473.734.73.127.13.257.261.387.396l1.113 1.112c.432.433.432.832 0 1.264-.118.118-.232.237-.35.35-.343.351-.669.677-1.023.995-.009.009-.017.013-.02.02-.351.351-.286.694-.213.926l.012.037c.29.7.697 1.361 1.317 2.148l.004.004c1.125 1.386 2.311 2.466 3.62 3.294.167.106.338.192.501.273.147.073.286.143.404.216.016.008.033.02.049.029a.888.888 0 0 0 .403.102c.339 0 .55-.212.62-.282l1.394-1.394c.139-.138.359-.306.616-.306.253 0 .46.16.587.298l.008.008 2.246 2.246c.42.416.42.844.004 1.276z" fill="#F6A623" fill-rule="evenodd"/></svg><svg width="28" height="38" viewBox="0 0 28 38" y="106"><title>header_phone</title><path d="M0 5.007A5.008 5.008 0 0 1 5.006 0h17.988A5.002 5.002 0 0 1 28 5.007v27.986A5.008 5.008 0 0 1 22.994 38H5.006A5.002 5.002 0 0 1 0 32.993V5.007zm2-.005A2.998 2.998 0 0 1 4.991 2H23.01A2.996 2.996 0 0 1 26 5.002v27.996A2.998 2.998 0 0 1 23.009 36H4.99A2.996 2.996 0 0 1 2 32.998V5.002zM2 6h24v2H2V6zm0 20h24v2H2v-2zm12 8a2 2 0 1 0 0-4 2 2 0 0 0 0 4z" fill="#F6A623" fill-rule="evenodd"/></svg><svg width="10" height="16" viewBox="0 0 10 16" y="144"><title>slider_arrow_right</title><path d="M9.577 6.911L2.415.415a1.414 1.414 0 1 0-2 2L6.57 8 .415 13.585a1.414 1.414 0 1 0 2 2L9.577 9.09c.299-.299.43-.698.406-1.089a1.407 1.407 0 0 0-.406-1.089z" fill-rule="evenodd" opacity=".2"/></svg><svg width="10" height="16" viewBox="0 0 10 16" y="160"><title>slider_arrow_left</title><path d="M.409 6.911L7.57.415a1.414 1.414 0 1 1 2.001 2L3.415 8l6.156 5.585a1.414 1.414 0 1 1-2 2L.408 9.09A1.405 1.405 0 0 1 .003 8c-.024-.391.107-.79.406-1.089z" fill-rule="evenodd" opacity=".2"/></svg><svg width="14" height="14" viewBox="0 0 14 14" y="176"><title>icon_lock</title><path d="M12.09 6.364h-1.272V3.818a3.818 3.818 0 1 0-7.636 0v2.546H1.909A1.908 1.908 0 0 0 0 8.273v3.818C0 13.146.854 14 1.91 14h10.18c1.056 0 1.91-.854 1.91-1.91V8.274a1.91 1.91 0 0 0-1.91-1.91zM4.456 3.818a2.546 2.546 0 0 1 5.09 0v2.546h-5.09V3.818zm8.272 8.273a.636.636 0 0 1-.636.636H1.909a.636.636 0 0 1-.636-.636V8.273c0-.352.285-.637.636-.637h10.182c.352 0 .636.285.636.637v3.818z" fill="#F6A623" fill-rule="evenodd"/></svg><svg width="15" height="14" viewBox="0 0 15 14" y="190"><title>icon_user</title><path d="M9.841 8.104a3.64 3.64 0 0 0 1.116-2.626V3.652a3.652 3.652 0 1 0-7.305 0v1.826c0 1.03.428 1.962 1.115 2.626C1.984 8.537 0 9.66 0 10.97v1.203C0 13.183.817 14 1.826 14h10.957a1.826 1.826 0 0 0 1.826-1.826v-1.198c0-1.31-1.984-2.437-4.768-2.872zM4.87 5.478V3.652a2.435 2.435 0 0 1 4.87 0v1.826a2.435 2.435 0 0 1-4.87 0zm8.521 6.696a.61.61 0 0 1-.608.609H1.826a.61.61 0 0 1-.609-.61v-1.202c0-.142.351-.6 1.393-1.037 1.218-.51 2.93-.804 4.694-.804 1.765 0 3.475.294 4.694.806 1.042.438 1.393.897 1.393 1.04v1.198z" fill="#F6A623" fill-rule="evenodd"/></svg><svg width="16" height="16" viewBox="0 0 16 16" y="204"><title>icon_search</title><path d="M11.646 10.648l4.146 4.146a.703.703 0 0 1-.002.997.701.701 0 0 1-.996.002l-4.147-4.146a6.545 6.545 0 1 1 .999-.998zm-5.1.988a5.09 5.09 0 1 0 0-10.181 5.09 5.09 0 0 0 0 10.181z" fill="#C5BDB9" fill-rule="evenodd"/></svg></svg>