<?xml version="1.0" encoding="UTF-8"?>
<svg width="10px" height="10px" viewBox="0 0 10 10" version="1.1" xmlns="http://www.w3.org/2000/svg" xmlns:xlink="http://www.w3.org/1999/xlink">
    <!-- Generator: Sketch 40.2 (33826) - http://www.bohemiancoding.com/sketch -->
    <title>icon_remove</title>
    <desc>Created with Sketch.</desc>
    <defs></defs>
    <g id="Source" stroke="none" stroke-width="1" fill="none" fill-rule="evenodd">
        <g id="basket" transform="translate(-1214.000000, -429.000000)" fill="#E6DEDA">
            <g id="table" transform="translate(150.000000, 404.000000)">
                <g id="1">
                    <path d="M1073.63374,32.8662167 C1074.12188,33.3543493 1074.12188,34.1459242 1073.63374,34.6337443 C1073.38968,34.8778106 1073.06967,35 1072.74998,35 C1072.43029,35 1072.11028,34.8778106 1071.86622,34.6337443 L1068.99992,31.767762 L1066.13363,34.6337443 C1065.88956,34.8778106 1065.56956,35 1065.24986,35 C1064.93017,35 1064.61017,34.8778106 1064.3661,34.6337443 C1063.87797,34.1456117 1063.87797,33.3540368 1064.3661,32.8662167 L1067.23208,29.9999219 L1064.3661,27.1336271 C1063.87797,26.6454945 1063.87797,25.8539196 1064.3661,25.3660995 C1064.85423,24.8779668 1065.64581,24.8779668 1066.13363,25.3660995 L1068.99992,28.2320818 L1071.86622,25.3660995 C1072.35435,24.8779668 1073.14592,24.8779668 1073.63374,25.3660995 C1074.12188,25.8542321 1074.12188,26.645807 1073.63374,27.1336271 L1070.76776,29.9999219 L1073.63374,32.8662167 L1073.63374,32.8662167 Z" id="icon_remove"></path>
                </g>
            </g>
        </g>
    </g>
</svg>