<?xml version="1.0" encoding="UTF-8"?>
<svg width="38px" height="38px" viewBox="0 0 38 38" version="1.1" xmlns="http://www.w3.org/2000/svg" xmlns:xlink="http://www.w3.org/1999/xlink">
    <!-- Generator: Sketch 40.2 (33826) - http://www.bohemiancoding.com/sketch -->
    <title>header_callback</title>
    <desc>Created with Sketch.</desc>
    <defs></defs>
    <g id="Source" stroke="none" stroke-width="1" fill="none" fill-rule="evenodd">
        <g id="home" transform="translate(-705.000000, -116.000000)" fill="#F6A623">
            <g id="header">
                <g id="callback" transform="translate(705.000000, 115.000000)">
                    <path d="M19,3 C9.61115925,3 2,10.6111593 2,20 C2,29.3888407 9.61115925,37 19,37 C27.7535002,37 34.9617691,30.3840783 35.8972487,21.8797929 C35.930339,21.5789746 35.8972487,21.8797929 35.8972487,21.8797929 C35.9389549,21.3775817 36.4172686,20.970459 36.9742047,20.970459 C37.5272848,20.970459 37.9455692,21.409209 37.8999323,21.9618436 C37.8999323,21.9618436 37.9327787,21.644442 37.8983107,21.9777113 C36.9091613,31.5417445 28.8255651,39 19,39 C8.50658975,39 0,30.4934102 0,20 C0,9.50658975 8.50658975,1 19,1 C24.769506,1 29.9383881,3.57157646 33.4229736,7.63105663 L33.4229736,5.99749184 C33.4229736,5.45030027 33.8668385,5.00671387 34.4229736,5.00671387 C34.9752584,5.00671387 35.4229736,5.45768905 35.4229736,5.99749184 L35.4229736,10.0159359 C35.4229736,10.2880194 35.3132308,10.5344871 35.1345108,10.7135423 C34.9470405,10.8960245 34.7005986,11.0067139 34.4321957,11.0067139 L30.4137516,11.0067139 C29.86656,11.0067139 29.4229736,10.562849 29.4229736,10.0067139 C29.4229736,9.45442912 29.8739488,9.00671387 30.4137516,9.00671387 L31.9676355,9.00671387 C28.8493301,5.33202142 24.1970014,3 19,3 L19,3 Z M26.7281285,26.2511497 C26.7240521,26.2511497 26.7240521,26.2552262 26.7281285,26.2511497 C26.5691476,26.4223599 26.4060903,26.5772644 26.2308036,26.7484746 C25.9658355,27.0012134 25.6967909,27.2661816 25.4440521,27.5637612 C25.0323323,28.004016 24.5472368,28.2119141 23.9113132,28.2119141 C23.8501667,28.2119141 23.7849438,28.2119141 23.7237973,28.2078376 C22.5130966,28.1303854 21.3880011,27.6575192 20.5441794,27.2539523 C18.2369183,26.1370096 16.210931,24.5512771 14.5273642,22.5415956 C13.1373005,20.8661816 12.2078737,19.317137 11.5923323,17.6539523 C11.213224,16.6389204 11.0746253,15.8480924 11.1357718,15.1021051 C11.1765361,14.6251625 11.3599756,14.2297485 11.6983196,13.8914045 L13.0883833,12.5013408 C13.2881285,12.3138249 13.500103,12.2119141 13.7080011,12.2119141 C13.9648164,12.2119141 14.1727145,12.3668185 14.3031603,12.4972644 C14.3072368,12.5013408 14.3113132,12.5054172 14.3153896,12.5094937 C14.5640521,12.7418504 14.8004852,12.9823599 15.0491476,13.2391752 C15.175517,13.3696211 15.3059629,13.5000669 15.4364087,13.6345892 L16.549275,14.7474555 C16.9813769,15.1795574 16.9813769,15.5790478 16.549275,16.0111497 C16.4310584,16.1293663 16.3169183,16.2475829 16.1987017,16.361723 C15.8562814,16.7122962 15.5301667,17.0384109 15.175517,17.3563727 C15.1673642,17.3645255 15.1592113,17.368602 15.1551349,17.3767548 C14.8045616,17.7273281 14.8697845,18.0697485 14.9431603,18.3021051 C14.9472368,18.3143344 14.9513132,18.3265637 14.9553896,18.338793 C15.2448164,19.0399395 15.6524597,19.7003217 16.2720775,20.4870733 L16.276154,20.4911497 C17.4012495,21.877137 18.5874915,22.9573918 19.8960266,23.7849077 C20.0631603,23.890895 20.2343705,23.9765 20.3974278,24.0580287 C20.5441794,24.1314045 20.6827782,24.2007039 20.8009947,24.2740797 C20.8173005,24.2822325 20.8336062,24.2944618 20.8499119,24.3026147 C20.9885106,24.3719141 21.1189565,24.4045255 21.2534788,24.4045255 C21.5918228,24.4045255 21.8037973,24.192551 21.8730966,24.1232516 L23.2672368,22.7291115 C23.4058355,22.5905128 23.6259629,22.423379 23.8827782,22.423379 C24.135517,22.423379 24.3434151,22.5823599 24.4697845,22.7209586 L24.4779374,22.7291115 L26.7240521,24.9752262 C27.1439247,25.3910223 27.1439247,25.8190478 26.7281285,26.2511497 L26.7281285,26.2511497 Z" id="header_callback"></path>
                </g>
            </g>
        </g>
    </g>
</svg>