<?xml version="1.0" encoding="UTF-8"?>
<svg width="15px" height="14px" viewBox="0 0 15 14" version="1.1" xmlns="http://www.w3.org/2000/svg" xmlns:xlink="http://www.w3.org/1999/xlink">
    <!-- Generator: Sketch 40.2 (33826) - http://www.bohemiancoding.com/sketch -->
    <title>icon_user</title>
    <desc>Created with Sketch.</desc>
    <defs></defs>
    <g id="Source" stroke="none" stroke-width="1" fill="none" fill-rule="evenodd">
        <g id="home" transform="translate(-1143.000000, -21.000000)" fill="#F6A623">
            <g id="header">
                <g id="top_line">
                    <g id="login/reg" transform="translate(1044.000000, 21.000000)">
                        <path d="M108.841239,8.10417391 C109.528609,7.44023913 109.956522,6.50923913 109.956522,5.47826087 L109.956522,3.65217391 C109.956522,1.6351087 108.321413,0 106.304348,0 C104.287283,0 102.652174,1.6351087 102.652174,3.65217391 L102.652174,5.47826087 C102.652174,6.50893478 103.080087,7.43963043 103.767,8.10371739 C100.983891,8.53726087 99,9.66121739 99,10.9708261 L99,12.173913 C99,13.1828261 99.8171739,14 100.826087,14 L111.782609,14 C112.791522,14 113.608696,13.1828261 113.608696,12.173913 L113.608696,10.9755435 C113.608696,9.66608696 111.624652,8.53863043 108.841239,8.10417391 L108.841239,8.10417391 Z M103.869565,5.47826087 L103.869565,3.65217391 C103.869565,2.30756522 104.959739,1.2173913 106.304348,1.2173913 C107.649109,1.2173913 108.73913,2.30756522 108.73913,3.65217391 L108.73913,5.47826087 C108.73913,6.82286957 107.649109,7.91304348 106.304348,7.91304348 C104.959739,7.91304348 103.869565,6.82286957 103.869565,5.47826087 L103.869565,5.47826087 Z M112.391304,12.173913 C112.391304,12.5096087 112.118304,12.7826087 111.782609,12.7826087 L100.826087,12.7826087 C100.490391,12.7826087 100.217391,12.5096087 100.217391,12.173913 L100.217391,10.9708261 C100.217391,10.829 100.568152,10.3711087 101.610087,9.93421739 C102.828087,9.42336957 104.53913,9.13043478 106.304348,9.13043478 C108.068652,9.13043478 109.779239,9.42413043 110.997696,9.93604348 C112.040239,10.3743043 112.391304,10.8331087 112.391304,10.9755435 L112.391304,12.173913 L112.391304,12.173913 Z" id="icon_user"></path>
                    </g>
                </g>
            </g>
        </g>
    </g>
</svg>