<?xml version="1.0" encoding="UTF-8"?>
<svg width="16px" height="16px" viewBox="0 0 16 16" version="1.1" xmlns="http://www.w3.org/2000/svg" xmlns:xlink="http://www.w3.org/1999/xlink">
    <!-- Generator: Sketch 40.2 (33826) - http://www.bohemiancoding.com/sketch -->
    <title>icon_search</title>
    <desc>Created with Sketch.</desc>
    <defs></defs>
    <g id="Source" stroke="none" stroke-width="1" fill="none" fill-rule="evenodd">
        <g id="home" transform="translate(-942.000000, -20.000000)" fill="#C5BDB9">
            <g id="header">
                <g id="top_line">
                    <g id="search" transform="translate(526.000000, 11.000000)">
                        <path d="M427.645843,19.6481382 L431.792152,23.7944473 C432.066915,24.0692102 432.068057,24.5135455 431.79041,24.7911927 C431.514686,25.0669171 431.072417,25.0716873 430.793665,24.7929353 L426.647271,20.6465411 C425.52502,21.5500989 424.098394,22.0909091 422.545455,22.0909091 C418.9305,22.0909091 416,19.1604095 416,15.5454545 C416,11.9304996 418.9305,9 422.545455,9 C426.160409,9 429.090909,11.9304996 429.090909,15.5454545 C429.090909,17.0987942 428.54982,18.5257549 427.645843,19.6481382 L427.645843,19.6481382 L427.645843,19.6481382 Z M422.545455,20.6363636 C425.357086,20.6363636 427.636364,18.3570858 427.636364,15.5454545 C427.636364,12.7338233 425.357086,10.4545455 422.545455,10.4545455 C419.733823,10.4545455 417.454545,12.7338233 417.454545,15.5454545 C417.454545,18.3570858 419.733823,20.6363636 422.545455,20.6363636 L422.545455,20.6363636 L422.545455,20.6363636 L422.545455,20.6363636 Z" id="icon_search"></path>
                    </g>
                </g>
            </g>
        </g>
    </g>
</svg>